<?xml version="1.0" encoding="utf-8"?>
<!-- Generator: Adobe Illustrator 16.0.4, SVG Export Plug-In . SVG Version: 6.00 Build 0)  -->
<!DOCTYPE svg PUBLIC "-//W3C//DTD SVG 1.1//EN" "http://www.w3.org/Graphics/SVG/1.1/DTD/svg11.dtd" [
	<!ENTITY ns_extend "http://ns.adobe.com/Extensibility/1.0/">
	<!ENTITY ns_ai "http://ns.adobe.com/AdobeIllustrator/10.0/">
	<!ENTITY ns_graphs "http://ns.adobe.com/Graphs/1.0/">
	<!ENTITY ns_vars "http://ns.adobe.com/Variables/1.0/">
	<!ENTITY ns_imrep "http://ns.adobe.com/ImageReplacement/1.0/">
	<!ENTITY ns_sfw "http://ns.adobe.com/SaveForWeb/1.0/">
	<!ENTITY ns_custom "http://ns.adobe.com/GenericCustomNamespace/1.0/">
	<!ENTITY ns_adobe_xpath "http://ns.adobe.com/XPath/1.0/">
]>
<svg version="1.1" id="Layer_1" xmlns:x="&ns_extend;" xmlns:i="&ns_ai;" xmlns:graph="&ns_graphs;"
	 xmlns="http://www.w3.org/2000/svg" xmlns:xlink="http://www.w3.org/1999/xlink" x="0px" y="0px" width="40px" height="40px"
	 viewBox="0 0 40 40" enable-background="new 0 0 40 40" xml:space="preserve">
<metadata>
	<sfw  xmlns="&ns_sfw;">
		<slices></slices>
		<sliceSourceBounds  bottomLeftOrigin="true" width="40" height="40.002" x="118.5" y="118.499"></sliceSourceBounds>
	</sfw>
</metadata>
<g>
	<path fill="#FFFFFF" d="M3.42,16.463c0-0.874,0.708-1.581,1.582-1.581h6.146c0.874,0,1.582,0.708,1.582,1.582v11.755h3.225
		l0.012-7.357c0-0.125,0.015-0.248,0.044-0.368l3.387-14.056c0.171-0.708,0.803-1.208,1.532-1.211c0.723,0,1.364,0.492,1.541,1.198
		l3.524,14.102c0.03,0.125,0.048,0.254,0.048,0.384v7.323h1.787l4.779-12.339c0.229-0.59,0.787-0.987,1.422-1.009
		c0.652-0.019,1.218,0.336,1.486,0.91l3.998,8.546C39.824,22.941,40,21.492,40,20C40,8.954,31.047-0.001,20-0.001S0,8.954,0,20
		c0,2.93,0.646,5.703,1.776,8.209h1.638L3.42,16.463z"/>
	<path fill="#FFFFFF" d="M30.387,30.385c-0.234,0.608-0.82,1.012-1.475,1.012H24.46c-0.874,0-1.581-0.709-1.581-1.582v-8.711
		l-1.916-7.662l-1.834,7.611l-0.015,8.748c-0.001,0.873-0.708,1.58-1.581,1.58h-6.386c-0.874,0-1.582-0.709-1.582-1.582V18.045
		H6.583L6.577,29.793c0,0.873-0.708,1.58-1.582,1.58H3.558c3.61,5.209,9.623,8.628,16.442,8.628c7.955,0,14.803-4.655,18.023-11.379
		l-3.803-8.133L30.387,30.385z"/>
</g>
</svg>
