<?xml version="1.0" encoding="utf-8"?>
<!-- Generator: Adobe Illustrator 16.0.4, SVG Export Plug-In . SVG Version: 6.00 Build 0)  -->
<!DOCTYPE svg PUBLIC "-//W3C//DTD SVG 1.1//EN" "http://www.w3.org/Graphics/SVG/1.1/DTD/svg11.dtd" [
	<!ENTITY ns_extend "http://ns.adobe.com/Extensibility/1.0/">
	<!ENTITY ns_ai "http://ns.adobe.com/AdobeIllustrator/10.0/">
	<!ENTITY ns_graphs "http://ns.adobe.com/Graphs/1.0/">
	<!ENTITY ns_vars "http://ns.adobe.com/Variables/1.0/">
	<!ENTITY ns_imrep "http://ns.adobe.com/ImageReplacement/1.0/">
	<!ENTITY ns_sfw "http://ns.adobe.com/SaveForWeb/1.0/">
	<!ENTITY ns_custom "http://ns.adobe.com/GenericCustomNamespace/1.0/">
	<!ENTITY ns_adobe_xpath "http://ns.adobe.com/XPath/1.0/">
]>
<svg version="1.1" id="Layer_1" xmlns:x="&ns_extend;" xmlns:i="&ns_ai;" xmlns:graph="&ns_graphs;"
	 xmlns="http://www.w3.org/2000/svg" xmlns:xlink="http://www.w3.org/1999/xlink" x="0px" y="0px" width="201.225px"
	 height="57.52px" viewBox="0 0 201.225 57.52" enable-background="new 0 0 201.225 57.52" xml:space="preserve">
<metadata>
	<sfw  xmlns="&ns_sfw;">
		<slices></slices>
		<sliceSourceBounds  bottomLeftOrigin="true" width="190.001" height="46.224" x="43.406" y="115.928"></sliceSourceBounds>
	</sfw>
</metadata>
<g>
	<g>
		<path fill="#333333" d="M56.102,21.657H54.58c-1.854,0-2.996-1.141-2.996-2.996c0-1.712,1.284-2.996,2.996-2.996h1.521v-4.089
			c0-2.283,1.427-3.805,3.424-3.805s3.425,1.521,3.425,3.805v4.089H64.9c1.76,0,3.28,0.809,3.28,2.996
			c0,2.141-1.521,2.996-3.28,2.996H62.95v15.788c0,2.282-1.428,3.804-3.425,3.804s-3.424-1.521-3.424-3.804V21.657z"/>
		<path fill="#333333" d="M70.082,18.804c0-2.282,1.807-3.424,3.519-3.424c1.808,0,3.329,0.666,3.329,2.854h0.094
			c1.285-1.902,2.663-2.854,4.805-2.854c1.665,0,3.327,1.188,3.327,3.662c0,2.235-2.045,2.377-4.09,3.329
			c-2.044,0.951-4.136,1.854-4.136,4.565v10.509c0,2.282-1.427,3.804-3.424,3.804s-3.424-1.521-3.424-3.804V18.804z"/>
		<path fill="#333333" d="M94.855,8.865c0,2.14-1.711,3.947-3.852,3.947c-2.045,0-3.853-1.854-3.853-3.947
			c0-1.949,1.808-3.757,3.853-3.757S94.855,6.868,94.855,8.865z M87.58,19.185c0-2.283,1.427-3.805,3.424-3.805
			s3.423,1.521,3.423,3.805v18.26c0,2.282-1.426,3.804-3.423,3.804s-3.424-1.521-3.424-3.804V19.185z"/>
		<path fill="#333333" d="M98.231,19.185c0-2.283,1.428-3.805,3.424-3.805c1.901,0,2.996,1.047,3.424,2.854
			c1.283-2.092,3.945-3.139,6.515-3.139c7.37,0,11.032,6.896,11.032,13.553c0,6.467-4.375,12.887-11.271,12.887
			c-2.14,0-4.47-0.81-6.276-2.377v8.369c0,2.283-1.427,3.805-3.424,3.805c-1.996,0-3.424-1.521-3.424-3.805V19.185z M110.451,35.257
			c3.566,0,5.325-3.708,5.325-6.895c0-3.234-1.759-6.99-5.325-6.99c-3.662,0-5.373,3.423-5.373,6.752S106.695,35.257,110.451,35.257
			z"/>
		<path fill="#333333" d="M149.062,28.362c0,7.132-4.896,13.172-12.268,13.172s-12.27-6.04-12.27-13.172
			c0-6.943,5.041-13.268,12.27-13.268C144.022,15.095,149.062,21.419,149.062,28.362z M131.373,28.362
			c0,3.281,1.712,6.895,5.422,6.895c3.708,0,5.42-3.613,5.42-6.895s-1.664-6.99-5.42-6.99
			C133.037,21.372,131.373,25.081,131.373,28.362z"/>
		<path fill="#333333" d="M165.896,23.083c-1.284,0-3.898-1.997-6.135-1.997c-1.236,0-2.33,0.571-2.33,1.902
			c0,3.186,11.889,2.71,11.889,10.509c0,4.565-3.852,8.037-9.749,8.037c-3.852,0-9.558-2.188-9.558-5.279
			c0-1.045,1.046-3.042,2.947-3.042c2.663,0,3.853,2.33,7.086,2.33c2.093,0,2.711-0.666,2.711-1.948
			c0-3.139-11.889-2.663-11.889-10.511c0-4.755,3.853-7.988,9.272-7.988c3.376,0,8.561,1.569,8.561,4.945
			C168.701,21.61,167.512,23.083,165.896,23.083z"/>
		<path fill="#333333" d="M195.52,28.362c0,7.132-4.897,13.172-12.269,13.172s-12.271-6.04-12.271-13.172
			c0-6.943,5.041-13.268,12.271-13.268C190.479,15.095,195.52,21.419,195.52,28.362z M177.829,28.362
			c0,3.281,1.712,6.895,5.422,6.895c3.708,0,5.421-3.613,5.421-6.895s-1.665-6.99-5.421-6.99
			C179.494,21.372,177.829,25.081,177.829,28.362z"/>
	</g>
	<path fill="#333333" d="M8.757,22.537c0.001-0.827,0.671-1.497,1.498-1.497h5.82c0.827,0,1.497,0.67,1.497,1.498V33.67h3.055
		l0.012-6.967c0-0.118,0.015-0.234,0.042-0.349l3.207-13.312c0.162-0.67,0.761-1.144,1.45-1.146c0.686,0,1.293,0.466,1.459,1.135
		l3.338,13.355c0.03,0.118,0.045,0.24,0.045,0.362v6.937h1.694L36.4,21.997c0.219-0.56,0.747-0.936,1.347-0.956
		c0.619-0.018,1.154,0.319,1.407,0.862l3.788,8.094c0.293-1.325,0.459-2.697,0.459-4.109c0-10.463-8.479-18.942-18.94-18.942
		c-10.463,0-18.941,8.479-18.941,18.942c0,2.773,0.61,5.4,1.683,7.774h1.551L8.757,22.537z"/>
	<path fill="#333333" d="M34.297,35.722c-0.225,0.576-0.778,0.957-1.396,0.957h-4.217c-0.827,0-1.498-0.672-1.498-1.498v-8.249
		l-1.813-7.256l-1.736,7.207l-0.014,8.286c-0.002,0.827-0.672,1.496-1.498,1.496h-6.048c-0.827,0-1.498-0.671-1.498-1.498V24.036
		h-2.825l-0.006,11.125c0,0.827-0.671,1.497-1.498,1.497H8.888c3.419,4.933,9.114,8.17,15.572,8.17
		c7.533,0,14.02-4.409,17.07-10.775l-3.603-7.703L34.297,35.722z"/>
</g>
</svg>
